<mxfile host="Electron" agent="Mozilla/5.0 (Windows NT 10.0; Win64; x64) AppleWebKit/537.36 (KHTML, like Gecko) draw.io/24.7.5 Chrome/126.0.6478.183 Electron/31.3.0 Safari/537.36" version="24.7.5">
  <diagram name="Page-1" id="YQ1qsYcKwhxKG_b2YIcr">
    <mxGraphModel dx="1036" dy="606" grid="1" gridSize="10" guides="1" tooltips="1" connect="1" arrows="1" fold="1" page="1" pageScale="1" pageWidth="850" pageHeight="1100" math="0" shadow="0">
      <root>
        <mxCell id="0" />
        <mxCell id="1" parent="0" />
        <mxCell id="TQRyMKwI9co-vIGQOwKO-3" value="" style="edgeStyle=orthogonalEdgeStyle;rounded=0;orthogonalLoop=1;jettySize=auto;html=1;" edge="1" parent="1" source="TQRyMKwI9co-vIGQOwKO-1" target="TQRyMKwI9co-vIGQOwKO-2">
          <mxGeometry relative="1" as="geometry" />
        </mxCell>
        <mxCell id="TQRyMKwI9co-vIGQOwKO-1" value="&lt;font style=&quot;font-size: 22px;&quot;&gt;Start&lt;/font&gt;" style="ellipse;whiteSpace=wrap;html=1;" vertex="1" parent="1">
          <mxGeometry x="330" y="90" width="120" height="80" as="geometry" />
        </mxCell>
        <mxCell id="TQRyMKwI9co-vIGQOwKO-5" value="" style="edgeStyle=orthogonalEdgeStyle;rounded=0;orthogonalLoop=1;jettySize=auto;html=1;" edge="1" parent="1" source="TQRyMKwI9co-vIGQOwKO-2" target="TQRyMKwI9co-vIGQOwKO-4">
          <mxGeometry relative="1" as="geometry" />
        </mxCell>
        <mxCell id="TQRyMKwI9co-vIGQOwKO-2" value="&lt;font style=&quot;font-size: 22px;&quot;&gt;Input document&lt;/font&gt;" style="ellipse;whiteSpace=wrap;html=1;" vertex="1" parent="1">
          <mxGeometry x="510" y="90" width="120" height="80" as="geometry" />
        </mxCell>
        <mxCell id="TQRyMKwI9co-vIGQOwKO-7" value="" style="edgeStyle=orthogonalEdgeStyle;rounded=0;orthogonalLoop=1;jettySize=auto;html=1;" edge="1" parent="1" source="TQRyMKwI9co-vIGQOwKO-4" target="TQRyMKwI9co-vIGQOwKO-6">
          <mxGeometry relative="1" as="geometry" />
        </mxCell>
        <mxCell id="TQRyMKwI9co-vIGQOwKO-4" value="&lt;font style=&quot;font-size: 18px;&quot;&gt;Tokenization&lt;/font&gt;" style="whiteSpace=wrap;html=1;" vertex="1" parent="1">
          <mxGeometry x="510" y="200" width="120" height="60" as="geometry" />
        </mxCell>
        <mxCell id="TQRyMKwI9co-vIGQOwKO-9" value="" style="edgeStyle=orthogonalEdgeStyle;rounded=0;orthogonalLoop=1;jettySize=auto;html=1;" edge="1" parent="1" source="TQRyMKwI9co-vIGQOwKO-6" target="TQRyMKwI9co-vIGQOwKO-8">
          <mxGeometry relative="1" as="geometry" />
        </mxCell>
        <mxCell id="TQRyMKwI9co-vIGQOwKO-6" value="&lt;font style=&quot;font-size: 17px;&quot;&gt;NER for names and places&lt;/font&gt;" style="whiteSpace=wrap;html=1;" vertex="1" parent="1">
          <mxGeometry x="510" y="340" width="120" height="60" as="geometry" />
        </mxCell>
        <mxCell id="TQRyMKwI9co-vIGQOwKO-11" value="" style="edgeStyle=orthogonalEdgeStyle;rounded=0;orthogonalLoop=1;jettySize=auto;html=1;" edge="1" parent="1" source="TQRyMKwI9co-vIGQOwKO-8" target="TQRyMKwI9co-vIGQOwKO-10">
          <mxGeometry relative="1" as="geometry" />
        </mxCell>
        <mxCell id="TQRyMKwI9co-vIGQOwKO-8" value="&lt;font style=&quot;font-size: 15px;&quot;&gt;Date extraction with regex&lt;/font&gt;" style="whiteSpace=wrap;html=1;" vertex="1" parent="1">
          <mxGeometry x="510" y="480" width="120" height="60" as="geometry" />
        </mxCell>
        <mxCell id="TQRyMKwI9co-vIGQOwKO-13" value="" style="edgeStyle=orthogonalEdgeStyle;rounded=0;orthogonalLoop=1;jettySize=auto;html=1;" edge="1" parent="1" source="TQRyMKwI9co-vIGQOwKO-10" target="TQRyMKwI9co-vIGQOwKO-12">
          <mxGeometry relative="1" as="geometry" />
        </mxCell>
        <mxCell id="TQRyMKwI9co-vIGQOwKO-10" value="&lt;font style=&quot;font-size: 16px;&quot;&gt;Store Entities in Lists (Names, Dates, Places)&lt;/font&gt;" style="whiteSpace=wrap;html=1;" vertex="1" parent="1">
          <mxGeometry x="510" y="620" width="120" height="60" as="geometry" />
        </mxCell>
        <mxCell id="TQRyMKwI9co-vIGQOwKO-15" value="" style="edgeStyle=orthogonalEdgeStyle;rounded=0;orthogonalLoop=1;jettySize=auto;html=1;" edge="1" parent="1" source="TQRyMKwI9co-vIGQOwKO-12" target="TQRyMKwI9co-vIGQOwKO-14">
          <mxGeometry relative="1" as="geometry" />
        </mxCell>
        <mxCell id="TQRyMKwI9co-vIGQOwKO-12" value="&lt;font style=&quot;font-size: 15px;&quot;&gt;Remove Duplicates&lt;br&gt;&lt;/font&gt;" style="whiteSpace=wrap;html=1;" vertex="1" parent="1">
          <mxGeometry x="510" y="760" width="120" height="60" as="geometry" />
        </mxCell>
        <mxCell id="TQRyMKwI9co-vIGQOwKO-17" value="" style="edgeStyle=orthogonalEdgeStyle;rounded=0;orthogonalLoop=1;jettySize=auto;html=1;" edge="1" parent="1" source="TQRyMKwI9co-vIGQOwKO-14" target="TQRyMKwI9co-vIGQOwKO-16">
          <mxGeometry relative="1" as="geometry" />
        </mxCell>
        <mxCell id="TQRyMKwI9co-vIGQOwKO-14" value="&lt;font style=&quot;font-size: 14px;&quot;&gt;Return Dictionary (Names, Dates, Places)&lt;/font&gt;" style="whiteSpace=wrap;html=1;" vertex="1" parent="1">
          <mxGeometry x="510" y="900" width="120" height="60" as="geometry" />
        </mxCell>
        <mxCell id="TQRyMKwI9co-vIGQOwKO-16" value="&lt;font style=&quot;font-size: 17px;&quot;&gt;End&lt;/font&gt;" style="ellipse;whiteSpace=wrap;html=1;" vertex="1" parent="1">
          <mxGeometry x="320" y="890" width="120" height="80" as="geometry" />
        </mxCell>
      </root>
    </mxGraphModel>
  </diagram>
</mxfile>
